<?xml version="1.0" encoding="UTF-8"?>
<svg xmlns="http://www.w3.org/2000/svg" xmlns:xlink="http://www.w3.org/1999/xlink" width="32px" height="32px" viewBox="0 0 32 32" version="1.1">
<g id="surface1">
<path style=" stroke:none;fill-rule:nonzero;fill:rgb(0%,0%,0%);fill-opacity:1;" d="M 25.175781 24.394531 L 25.90625 24.394531 C 25.90625 26.53125 25.5625 28.082031 24.871094 29.054688 C 24.183594 30.027344 23.3125 30.515625 22.257812 30.515625 C 21.410156 30.515625 20.589844 30.195312 19.808594 29.5625 C 19.023438 28.925781 18.324219 27.207031 17.703125 24.394531 L 15.960938 16.535156 L 9.921875 30.230469 L 6.09375 30.230469 L 14.765625 11.554688 C 14.304688 9.136719 13.75 7.347656 13.101562 6.1875 C 12.453125 5.023438 11.652344 4.445312 10.691406 4.445312 C 9.921875 4.445312 9.253906 4.734375 8.6875 5.316406 C 8.121094 5.894531 7.796875 6.808594 7.714844 8.050781 L 6.984375 8.050781 C 7.027344 6.0625 7.425781 4.476562 8.179688 3.289062 C 8.9375 2.101562 9.882812 1.5 11.015625 1.484375 C 11.746094 1.484375 12.433594 1.78125 13.082031 2.378906 C 13.730469 2.972656 14.296875 3.996094 14.785156 5.457031 C 15.269531 6.914062 16.019531 9.925781 17.03125 14.492188 L 18.472656 20.914062 C 19.050781 23.574219 19.660156 25.347656 20.292969 26.238281 C 20.929688 27.132812 21.699219 27.582031 22.605469 27.597656 C 24.117188 27.597656 24.972656 26.53125 25.175781 24.394531 Z M 25.175781 24.394531 "/>
</g>
</svg>
